<?xml version="1.0" standalone="no"?>
<!DOCTYPE svg PUBLIC "-//W3C//DTD SVG 20010904//EN"
 "http://www.w3.org/TR/2001/REC-SVG-20010904/DTD/svg10.dtd">
<svg version="1.0" xmlns="http://www.w3.org/2000/svg"
 width="512.000000pt" height="512.000000pt" viewBox="0 0 512.000000 512.000000"
 preserveAspectRatio="xMidYMid meet">
<metadata>
Created by potrace 1.16, written by Peter Selinger 2001-2019
</metadata>
<g transform="translate(0.000000,512.000000) scale(0.100000,-0.100000)"
fill="#000000" stroke="none">
<path d="M902 5095 c-82 -69 -151 -281 -159 -490 -6 -154 10 -256 62 -402 26
-72 35 -112 35 -162 1 -85 17 -260 26 -286 7 -20 7 -20 -16 0 -12 11 -29 34
-36 50 -12 27 -13 28 -14 7 0 -13 7 -55 16 -93 20 -90 16 -101 -36 -93 -22 4
-40 5 -40 2 0 -2 23 -21 50 -42 28 -21 50 -43 50 -48 0 -6 -47 -61 -106 -123
l-105 -113 50 19 c28 10 69 23 91 28 46 10 52 22 -61 -119 -42 -53 -112 -133
-155 -179 l-79 -84 135 70 c124 65 296 173 274 173 -5 0 -50 -13 -99 -29 l-90
-30 85 82 c47 46 108 102 135 126 l50 43 -42 -4 c-24 -2 -43 -1 -43 2 1 3 44
34 96 69 102 69 121 87 77 71 l-28 -11 30 25 c17 14 101 62 189 108 87 46 175
98 195 115 l36 33 -35 -12 c-19 -6 -89 -40 -156 -75 -66 -34 -125 -63 -129
-63 -16 0 58 50 92 62 18 7 33 15 33 19 0 10 -27 19 -58 20 l-27 0 28 22 c15
12 74 46 130 75 72 37 92 51 67 46 -19 -3 -46 -8 -60 -10 l-25 -5 25 14 c14 7
61 24 105 37 95 28 114 40 48 30 -26 -5 -49 -7 -51 -5 -1 1 26 15 60 31 56 26
73 29 159 28 52 -1 106 -7 120 -13 l24 -12 -24 19 c-14 11 -42 23 -63 26 -85
14 -139 28 -131 36 16 14 107 40 142 40 l36 0 -25 20 -25 20 40 0 c50 0 77 15
46 25 -11 3 -21 9 -20 13 0 4 32 23 72 42 62 30 75 42 95 80 12 24 22 58 22
74 0 28 -1 29 -15 10 -13 -18 -14 -17 -15 18 0 80 -21 140 -62 182 l-39 41 6
-35 7 -35 -55 60 c-59 64 -65 79 -20 47 19 -14 34 -17 44 -12 10 6 53 -3 123
-25 l107 -34 -6 31 c-7 30 -6 30 21 24 16 -4 37 -9 47 -12 19 -6 22 8 6 38 -6
11 -9 22 -7 24 3 2 31 -12 62 -31 32 -19 60 -35 61 -35 2 0 5 8 7 18 4 13 14
7 52 -32 l48 -49 -7 34 c-4 19 -16 51 -27 72 -11 22 -17 41 -15 44 10 9 110
-49 154 -90 41 -38 46 -40 58 -24 11 16 13 16 19 1 3 -8 6 -46 6 -82 l-1 -67
-20 35 -20 35 5 -40 c3 -22 8 -130 11 -240 5 -183 4 -197 -10 -170 -15 29 -15
28 -10 -35 16 -217 16 -236 0 -215 -8 11 -21 29 -29 40 -10 13 -7 -8 10 -70
13 -50 24 -101 24 -115 1 -14 3 -56 5 -95 l5 -70 -40 110 c-50 140 -149 342
-205 420 -68 96 -84 99 -21 5 99 -148 180 -320 206 -436 5 -22 12 -49 16 -60
4 -10 -11 9 -32 44 -74 118 -166 215 -291 306 -107 77 -237 156 -259 156 -5 0
18 -16 51 -36 160 -96 382 -315 449 -444 49 -92 105 -264 112 -341 l5 -64 -50
115 c-28 63 -56 119 -62 125 -6 5 -4 -7 4 -27 19 -44 57 -225 57 -265 -1 -72
-70 -165 -157 -213 -76 -41 -117 -40 -143 3 -17 27 -20 50 -20 154 0 99 -4
133 -21 178 -26 70 -103 155 -171 189 -66 33 -97 34 -40 1 53 -30 130 -97 154
-133 22 -32 41 -99 33 -112 -3 -5 -22 9 -42 31 -40 44 -89 73 -143 83 -33 7
-31 5 25 -32 33 -21 68 -48 77 -58 19 -22 52 -94 45 -100 -2 -2 -21 21 -42 51
-21 31 -47 61 -59 67 -13 7 -7 -4 17 -32 61 -72 40 -78 -32 -10 -57 54 -133
80 -229 79 l-77 -2 86 -7 c58 -5 102 -15 140 -32 54 -25 122 -75 86 -64 -53
17 -159 28 -221 23 -109 -8 -292 -69 -395 -131 -78 -47 -191 -128 -191 -137 0
-3 12 -4 28 -2 20 4 7 -9 -48 -45 -54 -35 -92 -71 -135 -126 -99 -128 -98
-133 7 -45 40 34 98 78 128 97 66 42 152 113 145 120 -2 2 -26 -11 -52 -30
-74 -53 -81 -54 -38 -9 21 22 35 41 31 41 -5 0 18 14 50 31 32 17 78 47 101
66 73 59 148 87 233 88 l74 0 39 -70 c42 -77 67 -108 112 -137 27 -18 27 -19
6 -15 -17 4 -21 3 -13 -5 6 -6 46 -13 89 -16 43 -2 86 -9 96 -14 52 -27 74
-136 40 -201 -9 -18 -43 -61 -75 -97 -56 -62 -128 -185 -128 -219 0 -9 14 8
30 38 36 65 69 110 131 176 52 56 80 105 103 185 25 85 28 86 69 24 75 -114
66 -164 -50 -287 -99 -106 -138 -178 -148 -277 -4 -36 -5 -63 -2 -60 2 3 20
48 39 101 43 116 66 154 151 246 82 89 97 130 77 211 -7 32 -13 72 -14 91 -1
31 3 36 69 72 79 45 140 106 184 188 22 41 31 50 31 33 0 -40 -47 -115 -125
-195 -41 -43 -75 -84 -75 -90 0 -15 166 148 190 186 17 28 18 25 25 -160 4
-108 11 -179 15 -168 10 26 40 284 40 350 l1 50 19 -49 c27 -69 63 -103 158
-148 45 -21 82 -44 82 -51 0 -7 -11 -39 -25 -72 -31 -75 -33 -151 -5 -204 11
-22 68 -91 128 -154 153 -160 194 -257 196 -459 l1 -97 -69 -70 c-39 -39 -68
-73 -65 -76 3 -2 34 20 70 50 63 54 64 54 67 29 4 -29 -26 -66 -90 -110 -36
-25 -49 -44 -29 -44 4 0 31 18 60 41 43 34 51 38 51 21 0 -47 -22 -78 -80
-116 -33 -21 -60 -42 -60 -47 0 -16 12 -10 66 31 52 39 52 39 44 12 -20 -64
-34 -98 -48 -114 -13 -15 -12 -18 14 -23 16 -3 43 -10 59 -15 24 -7 20 -7 -15
-3 -25 4 -61 14 -81 25 -30 15 -39 16 -62 5 -15 -6 -27 -15 -27 -19 0 -4 11
-2 25 4 19 8 31 8 50 0 33 -15 24 -34 -41 -91 -91 -80 -209 -90 -363 -31 -117
45 -121 80 -14 114 133 44 243 187 243 319 0 79 -22 121 -79 155 -48 28 -92
32 -421 36 -221 2 -267 -229 -81 -414 43 -44 75 -64 141 -92 131 -54 121 -82
-50 -131 -165 -48 -303 -18 -367 79 -19 29 -17 32 48 75 13 9 21 20 18 23 -3
3 -24 -7 -47 -24 l-42 -30 -14 28 c-20 38 -57 154 -51 160 2 3 21 -8 41 -24
100 -79 150 -108 166 -98 8 5 3 12 -16 19 -15 6 -65 40 -111 76 -90 69 -93 73
-111 199 l-6 45 51 -49 c28 -28 54 -47 57 -43 4 4 -19 32 -51 62 l-58 56 6
192 c4 106 9 208 12 227 l5 35 -21 -43 c-11 -23 -28 -75 -38 -114 l-18 -71
-13 54 c-22 94 -31 90 -24 -11 3 -52 10 -117 15 -144 17 -93 9 -90 -41 11 -77
156 -187 253 -306 269 l-39 5 47 -19 c26 -11 62 -29 82 -41 47 -29 142 -133
167 -184 18 -35 59 -142 59 -154 0 -2 -22 23 -50 56 -58 70 -99 103 -161 130
-87 38 -93 32 -17 -18 107 -71 194 -175 214 -254 6 -27 5 -28 -22 -21 -16 4
-58 18 -94 32 -105 40 -243 82 -269 82 -33 0 -16 17 35 35 37 12 38 14 14 19
-14 3 -53 7 -88 8 l-63 3 63 37 c39 23 55 38 43 38 -37 0 -164 33 -159 42 3 4
31 8 62 9 l57 1 -46 14 c-25 8 -88 20 -140 28 -51 7 -80 14 -62 15 18 0 67 6
110 13 86 13 86 13 -50 33 -44 6 -47 8 -30 20 16 13 12 14 -37 15 l-55 1 55
29 c30 16 71 29 90 30 28 0 42 8 73 43 21 23 52 56 69 74 l31 32 -39 -2 c-21
-1 -60 0 -86 1 l-47 2 45 87 c53 103 58 138 10 67 -48 -71 -96 -108 -188 -145
-43 -17 -78 -33 -78 -36 0 -3 8 -2 18 2 26 10 146 35 150 30 2 -2 -14 -20 -35
-40 -24 -24 -31 -34 -18 -30 29 10 155 19 155 11 0 -4 -11 -22 -25 -40 -21
-28 -40 -38 -120 -60 -113 -32 -146 -32 -95 1 19 13 28 23 20 23 -37 0 -152
-30 -190 -50 l-43 -22 35 44 c19 23 45 58 58 77 l23 33 -24 -12 c-13 -7 -39
-26 -58 -44 l-33 -31 27 55 c15 30 59 97 98 148 77 103 77 119 1 96 -47 -14
-167 -74 -161 -81 2 -1 30 6 62 17 32 11 61 20 64 20 13 0 -117 -123 -149
-140 -19 -11 -46 -29 -60 -40 -19 -16 -12 -14 25 6 33 19 45 22 37 11 -8 -9
-37 -28 -65 -41 -29 -14 -62 -33 -74 -42 -22 -16 -22 -14 7 70 46 138 80 187
244 354 82 83 146 152 142 152 -12 0 -109 -51 -211 -113 -55 -33 -104 -62
-108 -64 -28 -16 116 230 166 285 l41 43 -30 -7 c-16 -4 -48 -13 -72 -20 l-42
-12 67 76 c110 126 105 117 53 96 -59 -23 -87 -45 -153 -124 -57 -68 -180
-240 -171 -240 2 0 45 27 94 60 49 33 91 60 93 60 8 0 -119 -235 -159 -295
-71 -104 -71 -109 1 -55 102 77 109 79 70 14 -64 -105 -125 -318 -125 -433 l0
-35 17 24 c23 36 72 87 115 122 l38 29 -14 -38 c-18 -51 -43 -173 -50 -243
l-6 -55 49 99 c69 138 87 152 51 39 -57 -175 -60 -322 -13 -515 l18 -73 8 78
c8 84 22 124 65 197 l27 45 6 -170 c5 -148 10 -181 34 -255 39 -121 119 -313
167 -399 45 -82 106 -181 113 -181 2 0 -16 42 -40 93 -55 117 -99 250 -125
376 -25 123 -25 148 0 186 20 30 20 30 20 5 0 -13 15 -74 34 -135 19 -60 41
-155 50 -211 14 -92 81 -323 71 -244 -2 19 -7 82 -11 140 l-6 105 47 -75 c64
-100 104 -153 272 -362 78 -98 147 -187 153 -199 25 -46 17 -9 -15 71 -51 128
-83 250 -100 378 -9 64 -18 118 -21 121 -12 12 4 -235 19 -289 15 -53 15 -54
-4 -30 -49 65 -111 212 -142 336 -24 98 -33 121 -35 95 -3 -33 11 -157 24
-211 9 -38 -82 103 -132 205 -25 50 -52 114 -60 144 -11 35 -19 49 -24 41 -9
-14 -53 115 -64 188 -6 39 -4 45 32 84 l39 41 13 -47 c13 -47 30 -62 30 -26 0
22 57 67 134 107 55 28 162 53 221 52 34 -1 31 -3 -20 -10 -54 -7 -201 -57
-193 -64 2 -2 28 4 58 12 123 34 399 12 486 -39 51 -30 35 -33 -43 -8 -78 26
-252 38 -318 22 l-40 -10 38 -1 37 -1 -32 -31 c-32 -29 -32 -30 -8 -25 14 4
95 8 180 10 136 3 142 3 45 -3 -87 -6 -123 -13 -175 -35 -112 -48 -160 -76
-206 -118 -24 -23 -47 -38 -50 -35 -3 3 -23 38 -45 79 -40 76 -51 69 -25 -16
15 -51 75 -156 88 -156 4 0 8 13 8 29 0 21 12 42 44 74 72 74 150 106 296 121
l55 6 -35 -15 c-46 -21 -97 -61 -111 -88 l-12 -22 24 21 c26 23 210 72 302 79
33 3 17 -2 -44 -14 -137 -27 -192 -58 -230 -133 -26 -50 -24 -58 4 -17 17 26
37 39 87 56 82 27 108 28 54 2 -23 -11 -52 -31 -64 -45 l-23 -24 42 0 42 0 -7
-57 c-3 -32 -10 -66 -15 -75 -24 -45 -6 -46 30 -1 36 45 81 91 81 82 0 -2 -11
-31 -25 -64 -30 -72 -32 -102 -5 -58 11 18 22 33 24 33 2 0 2 -17 -1 -38 -7
-51 18 -143 63 -236 21 -42 38 -75 40 -74 1 2 -4 28 -12 58 -16 63 -19 160 -4
160 6 0 10 -6 10 -12 1 -51 167 -361 178 -330 2 6 -4 34 -12 63 -9 29 -16 69
-16 88 l1 36 25 -30 c34 -40 60 -92 67 -135 l7 -35 -20 25 c-11 14 -20 28 -20
33 0 4 -5 7 -11 7 -13 0 -3 -52 18 -95 18 -36 83 -118 89 -112 2 2 -7 34 -21
71 -14 36 -25 85 -24 109 l1 42 17 -55 c10 -31 23 -65 29 -75 10 -17 11 -12 6
25 -5 43 -4 41 25 -30 17 -41 42 -88 56 -105 l26 -30 -17 40 c-9 22 -27 66
-40 97 -13 31 -26 76 -29 100 -5 38 -4 40 6 16 14 -37 25 -35 39 7 13 40 24
44 40 15 6 -11 15 -18 19 -15 5 2 48 -43 97 -101 79 -94 89 -103 98 -85 6 10
49 64 96 119 75 89 87 99 98 84 46 -60 39 -204 -14 -287 -17 -27 -24 -33 -21
-18 4 19 -2 16 -45 -20 -61 -51 -135 -143 -186 -230 l-38 -65 -41 81 c-42 85
-133 219 -186 274 -35 37 -47 30 -47 -27 l0 -35 -32 45 c-18 25 -91 115 -162
200 -177 212 -186 227 -186 314 l0 71 -26 -43 c-14 -23 -27 -42 -29 -42 -6 0
-156 189 -191 242 l-34 50 -2 -63 c-4 -102 0 -149 13 -183 16 -40 102 -166
135 -197 l25 -23 -30 64 c-17 36 -33 85 -36 110 -10 67 9 33 46 -83 30 -94 69
-159 127 -210 l21 -19 -14 54 c-7 29 -16 78 -20 108 -9 80 11 42 41 -77 13
-52 38 -121 55 -152 38 -67 110 -174 114 -169 1 2 -4 34 -11 72 -8 38 -13 73
-12 78 5 13 149 -185 204 -281 27 -47 50 -78 52 -70 1 8 6 41 10 74 l7 60 57
-90 c31 -50 77 -133 103 -186 l48 -95 38 75 c42 80 127 197 180 246 l32 30 -6
-50 c-3 -27 -9 -59 -13 -69 -10 -26 143 90 191 146 36 41 41 36 19 -16 -14
-36 16 -6 98 98 78 97 81 99 74 62 -4 -21 -27 -105 -51 -185 -24 -80 -42 -147
-41 -148 8 -9 176 266 239 392 89 175 144 246 289 374 l103 89 3 -70 c2 -41
-3 -91 -12 -120 l-14 -50 36 44 c20 24 57 66 82 93 25 28 74 84 109 125 36 41
101 111 146 155 l82 81 -9 -44 c-7 -38 -38 -154 -54 -201 -4 -11 -2 -12 11 -1
8 7 29 58 46 114 41 134 70 216 79 221 8 5 38 -61 65 -143 l17 -53 64 97 c35
53 76 128 90 166 15 37 28 67 30 66 6 -7 -28 -195 -54 -295 -16 -62 -24 -110
-19 -106 18 11 96 188 116 265 11 43 23 106 26 140 3 35 8 79 11 98 l6 34 19
-24 18 -25 -6 68 c-3 37 -2 67 3 67 5 -1 29 -25 53 -55 25 -30 47 -53 49 -50
10 10 -32 216 -63 304 -18 53 -27 87 -19 76 7 -11 20 -29 28 -40 15 -19 15
-19 16 9 l0 29 43 -48 c23 -27 48 -56 55 -64 30 -37 -15 229 -59 357 -17 48
-36 93 -43 101 -13 17 -13 17 74 -37 30 -19 65 -44 78 -56 l24 -21 -8 30 c-14
60 -57 172 -96 249 -22 43 -38 80 -36 81 2 2 35 -16 75 -39 l71 -43 -15 36
c-25 61 -104 203 -148 267 l-42 61 96 -28 c53 -16 96 -29 96 -29 0 0 -34 36
-76 80 -85 89 -175 200 -162 200 4 0 25 -4 46 -9 34 -8 37 -8 25 7 -32 43
-108 132 -161 188 l-58 62 33 7 32 7 -38 35 -38 35 46 -3 c25 -2 46 -1 46 2 0
4 -16 21 -37 39 -35 31 -36 33 -21 59 18 29 33 83 42 151 7 43 6 44 -9 22 -18
-25 -71 -56 -84 -48 -4 3 7 36 26 73 38 79 57 185 51 282 -4 55 0 82 28 166
43 131 56 213 55 365 0 254 -70 448 -181 507 -103 55 -209 11 -420 -176 -90
-79 -184 -140 -264 -171 -27 -10 -27 -9 -21 20 l6 29 -45 -25 c-25 -14 -50
-23 -55 -19 -6 3 -21 -5 -33 -17 -20 -20 -23 -21 -26 -5 -3 12 -8 15 -20 8 -9
-4 -44 -11 -76 -14 l-59 -6 44 45 c24 24 40 44 37 44 -3 0 -52 -16 -107 -35
-56 -20 -106 -33 -112 -29 -5 3 -8 21 -5 39 l6 33 -31 -15 c-39 -20 -48 -10
-22 25 l21 29 -36 -18 c-21 -10 -76 -34 -124 -53 -66 -25 -88 -31 -88 -20 0
18 -14 18 -30 -1 -7 -9 -15 -14 -17 -11 -6 5 25 66 46 90 24 28 -104 -38 -156
-80 l-42 -35 -7 38 c-10 57 -20 70 -27 37 -3 -16 -10 -41 -16 -57 l-11 -28
-65 68 -65 68 26 -48 c15 -26 24 -50 22 -53 -3 -2 -26 8 -53 22 -26 15 -82 37
-125 49 l-78 22 29 -46 c19 -29 25 -47 18 -50 -6 -2 -51 16 -100 41 -49 24
-89 43 -89 41 0 -1 9 -17 20 -35 11 -18 20 -36 20 -39 0 -10 -79 10 -130 32
l-45 20 44 -45 c25 -25 43 -48 40 -50 -8 -8 -158 40 -177 57 -24 22 -30 21
-34 -3 -3 -19 -4 -19 -55 5 -46 21 -53 22 -53 8 0 -13 -8 -10 -32 13 -20 19
-29 23 -25 12 17 -48 -63 2 -239 148 -72 60 -160 126 -195 147 -62 36 -66 37
-161 37 -88 0 -99 -2 -126 -25z m215 -59 c65 -31 200 -159 302 -286 41 -52
107 -129 146 -171 72 -76 100 -122 111 -178 l6 -30 -63 34 c-78 42 -91 44 -57
8 14 -16 29 -39 33 -53 l7 -25 -31 29 c-38 36 -38 32 -6 -26 14 -25 27 -59 29
-75 1 -17 7 -36 11 -43 5 -8 -7 -2 -27 13 -50 39 -55 33 -14 -15 64 -75 42
-78 -58 -10 -39 27 -100 65 -136 85 -36 21 -76 46 -90 58 l-25 21 25 -7 c14
-4 63 -17 110 -30 47 -13 86 -22 88 -20 1 1 -49 28 -113 58 -63 31 -115 59
-115 63 0 3 8 3 18 -1 25 -10 164 -36 169 -32 2 2 -25 18 -59 35 -60 29 -135
92 -110 92 6 0 14 -4 17 -10 3 -5 16 -15 28 -21 12 -6 1 10 -25 35 -27 26 -48
49 -48 51 0 1 32 -10 71 -26 81 -33 185 -62 202 -56 7 2 -19 14 -58 27 -83 27
-182 71 -210 94 -13 10 0 8 40 -8 55 -22 147 -45 135 -34 -3 3 -62 31 -133 63
-70 32 -125 60 -123 63 3 2 59 -15 126 -38 66 -23 126 -40 132 -38 6 2 -11 12
-38 22 -82 31 -147 67 -186 102 -40 35 -127 84 -152 84 -21 0 -28 -32 -20 -85
5 -35 1 -57 -15 -96 -26 -60 -29 -150 -7 -202 20 -49 29 -47 21 6 -7 40 -4 37
63 -64 58 -87 160 -289 146 -289 -2 0 -17 19 -34 42 -16 22 -30 35 -30 27 1
-30 42 -103 76 -135 28 -25 32 -31 16 -27 -31 8 -101 87 -124 141 -11 26 -49
90 -84 142 -72 109 -93 159 -101 246 -7 72 15 183 52 262 24 52 26 53 57 47
42 -9 84 -30 128 -65 36 -28 93 -60 107 -60 14 0 -102 113 -146 141 -48 31
-95 37 -123 15 -23 -17 -61 -104 -82 -187 -37 -148 -13 -255 88 -409 35 -52
66 -101 70 -108 9 -16 26 -72 22 -72 -2 0 -22 25 -45 55 -64 85 -70 65 -7 -25
31 -44 61 -92 67 -107 5 -15 28 -43 50 -64 l39 -36 -52 8 c-29 5 -64 11 -77
14 l-25 6 24 -19 24 -20 -42 -7 c-81 -13 -55 -26 45 -21 54 3 87 3 73 0 -40
-8 -124 -36 -133 -44 -4 -4 3 -15 17 -24 35 -22 33 -36 -6 -36 -120 0 -198 83
-198 210 l0 31 30 -22 c16 -13 33 -20 36 -16 3 3 -19 57 -49 119 -79 161 -98
233 -104 404 -6 146 7 251 42 340 l15 39 -5 -45 c-14 -127 -17 -322 -6 -404
20 -149 103 -376 138 -376 9 0 40 -14 70 -31 30 -17 56 -29 58 -27 3 2 -27 28
-65 57 -80 61 -114 119 -152 256 -18 67 -22 108 -22 250 -1 189 6 221 71 323
84 133 163 122 332 -49 54 -55 101 -99 105 -99 14 0 -59 93 -130 166 -133 138
-240 150 -320 35 l-26 -36 6 40 c4 29 15 49 41 73 44 40 96 43 172 8z m3094
-47 c14 -9 38 -41 53 -69 30 -55 30 -82 0 -30 -10 17 -35 42 -55 56 -96 66
-168 36 -331 -136 -113 -120 -165 -166 -175 -156 -14 14 277 298 342 333 62
34 120 34 166 2z m-13 -85 c31 -24 92 -130 92 -161 0 -7 10 -21 21 -32 47 -43
49 -276 4 -445 -17 -65 -72 -206 -84 -219 -5 -5 -4 15 1 43 5 29 8 53 6 55 -2
1 -34 -23 -73 -53 l-70 -55 48 6 c45 6 47 6 47 -19 0 -14 -7 -39 -16 -55 -24
-47 -11 -44 35 6 23 25 45 45 50 45 5 0 12 6 15 13 4 6 4 -4 1 -23 -3 -19 -17
-52 -31 -74 l-26 -39 26 7 c33 8 34 -7 4 -77 -47 -112 -103 -166 -136 -133
-14 14 -13 18 11 36 15 12 32 30 37 41 10 17 8 18 -15 9 -28 -11 -64 -5 -107
17 -34 16 -36 29 -5 36 12 4 38 18 57 32 l35 26 -37 -6 c-52 -10 -65 1 -36 32
l23 24 -55 -6 -55 -7 33 27 c17 15 37 35 43 46 10 20 9 20 -21 4 l-31 -16 21
41 c12 23 19 44 17 46 -2 3 -23 -11 -47 -31 -57 -47 -62 -44 -13 8 22 23 60
64 84 91 39 43 41 48 19 41 l-25 -7 25 27 25 28 -27 -18 c-37 -23 -35 -15 7
41 57 74 112 175 130 237 22 75 14 85 -9 12 -9 -30 -18 -55 -20 -55 -1 0 -2
46 -1 103 0 91 -3 108 -28 162 -15 33 -33 63 -40 68 -7 5 1 6 21 3 34 -6 39 0
19 25 -44 57 -84 43 -207 -74 -85 -80 -82 -83 29 -28 72 37 110 42 71 10 -38
-30 -99 -60 -159 -79 -30 -9 -49 -20 -44 -23 12 -8 151 8 203 23 33 9 34 8 15
-6 -66 -51 -245 -123 -309 -125 -29 0 -29 -1 -10 -11 16 -7 44 -4 115 16 51
14 95 23 97 21 2 -2 -58 -33 -133 -70 -76 -36 -136 -68 -133 -70 3 -3 35 8 71
25 81 36 91 37 52 4 -29 -25 -29 -25 -5 -19 14 4 40 13 58 21 48 20 30 0 -39
-41 -33 -21 -58 -39 -55 -42 6 -6 99 23 139 44 15 7 27 12 27 9 0 -7 -124 -85
-154 -96 -16 -6 -26 -13 -24 -16 3 -3 29 4 57 15 28 10 49 16 46 11 -12 -19
-174 -119 -210 -129 -95 -26 -129 -3 -73 49 30 29 31 31 10 27 -23 -5 -24 -4
-17 31 4 20 14 45 22 54 14 16 14 18 -3 24 -45 16 -44 24 9 92 29 36 95 109
147 162 52 53 133 137 180 186 47 50 101 97 120 107 54 26 116 22 158 -9z
m-2608 -227 c30 -14 89 -41 131 -60 69 -32 81 -41 120 -98 40 -60 44 -62 49
-39 6 23 8 22 19 -15 6 -22 15 -63 18 -91 5 -50 5 -51 -29 -72 -48 -30 -54
-28 -55 17 -4 87 -55 153 -228 296 -55 46 -113 98 -130 116 l-30 33 40 -31
c22 -17 65 -42 95 -56z m1108 12 c-16 -47 -9 -48 91 -11 7 3 -2 -15 -21 -40
-20 -26 -42 -72 -52 -109 -10 -35 -31 -106 -47 -157 -48 -154 -32 -147 20 9
71 212 115 302 152 316 17 7 29 9 27 5 -22 -41 -49 -104 -46 -108 2 -2 20 18
40 45 36 48 88 81 127 81 25 0 25 3 6 -50 -8 -23 -15 -44 -15 -46 0 -3 26 9
58 25 31 15 68 32 81 36 21 6 19 2 -13 -25 -20 -18 -34 -35 -32 -38 3 -3 12 1
21 8 9 7 27 10 44 7 15 -3 52 1 82 8 65 18 59 17 59 5 0 -5 -20 -25 -45 -43
-55 -43 -114 -113 -151 -180 l-27 -50 36 28 37 27 0 -36 c0 -48 21 -95 56
-127 16 -15 84 -53 151 -84 67 -32 120 -61 118 -65 -3 -4 -26 -11 -52 -15 -33
-5 -42 -9 -32 -16 8 -5 25 -9 38 -9 31 0 141 -31 141 -39 0 -3 -24 -13 -52
-22 l-53 -16 75 1 c62 0 85 -4 133 -26 31 -15 60 -34 63 -42 3 -8 19 -20 35
-26 44 -19 28 -22 -21 -5 -80 28 -65 14 35 -34 90 -44 164 -90 125 -78 -58 17
-56 14 15 -22 44 -22 91 -50 105 -61 l25 -20 -70 6 -70 6 75 -34 c41 -19 98
-49 125 -67 l50 -33 -35 6 c-44 7 -291 128 -396 193 -92 58 -124 76 -124 69 0
-3 21 -20 48 -37 26 -18 70 -52 97 -75 28 -23 86 -60 130 -82 74 -37 174 -108
167 -119 -2 -2 17 -20 42 -39 26 -19 46 -37 46 -41 0 -8 -71 46 -92 69 -10 11
-23 18 -29 16 -11 -4 112 -109 224 -191 61 -45 124 -104 139 -131 14 -26 -2
-15 -91 62 -81 70 -148 106 -231 123 -30 6 -84 19 -119 30 -35 10 -84 19 -110
18 l-46 0 75 -23 c41 -12 104 -37 140 -55 l65 -33 -30 32 -30 33 29 -7 c33 -8
107 -61 213 -154 l77 -67 -65 -5 -66 -5 76 -38 c43 -21 66 -29 53 -18 -29 25
-11 36 27 17 27 -14 145 -136 138 -143 -2 -1 -35 6 -73 16 -38 11 -70 18 -71
17 -2 -2 19 -32 45 -67 77 -102 159 -229 148 -229 -2 0 -26 19 -53 42 -26 23
-82 66 -123 97 -78 58 -108 86 -143 135 l-21 30 59 -34 60 -33 -25 27 c-14 16
-50 45 -80 65 -60 41 -204 121 -179 99 8 -7 36 -31 62 -52 26 -21 73 -78 104
-125 31 -47 96 -126 143 -176 108 -111 181 -221 229 -342 l19 -49 -119 79
c-66 44 -121 78 -124 76 -2 -2 14 -31 36 -64 89 -135 152 -290 172 -418 5 -34
4 -37 -9 -26 -22 18 -37 51 -85 180 -41 111 -118 275 -158 333 -17 26 -104 85
-125 86 -4 0 -1 -11 8 -24 19 -30 81 -180 90 -220 l7 -29 -28 18 c-74 49 -155
96 -160 92 -2 -3 20 -19 49 -35 69 -40 135 -97 154 -133 13 -25 2 -20 -77 38
-136 102 -135 101 -125 83 5 -8 16 -23 24 -33 8 -9 13 -19 11 -21 -4 -5 -71 8
-111 20 -32 10 -19 -15 24 -46 l41 -30 -35 0 c-20 0 -52 7 -71 15 -20 8 -38
15 -41 15 -2 0 32 -35 75 -77 43 -42 77 -78 74 -81 -2 -3 -41 14 -86 37 l-82
41 51 -54 c29 -30 52 -58 52 -63 0 -4 -34 -18 -75 -31 -82 -25 -103 -48 -32
-37 69 10 240 46 262 55 18 7 15 13 -37 64 -51 50 -55 56 -33 56 13 0 35 4 48
9 29 11 39 2 79 -69 31 -55 71 -160 60 -160 -4 0 -25 14 -46 30 -36 27 -66 38
-66 24 0 -3 11 -21 25 -41 13 -20 23 -38 22 -39 -1 -2 -34 -8 -72 -14 -127
-19 -122 -10 -59 -96 74 -104 99 -185 99 -324 0 -59 -6 -129 -14 -160 l-14
-55 -15 35 c-9 19 -17 70 -18 114 -2 67 -38 226 -49 215 -1 -2 4 -35 12 -73 7
-38 13 -95 11 -125 l-3 -56 -26 37 c-14 21 -28 35 -31 32 -3 -3 -34 13 -68 35
-73 48 -139 73 -235 92 -73 14 -60 24 22 17 l45 -3 -29 24 c-15 14 -21 22 -13
19 8 -3 26 -9 39 -13 26 -8 25 -11 5 55 -6 19 -2 20 109 20 64 0 128 -5 143
-11 l28 -10 -19 22 c-11 11 -37 30 -57 40 -37 19 -146 39 -177 33 -9 -1 -51
-8 -94 -15 -85 -13 -86 -28 -2 -30 28 -1 41 -3 30 -6 -107 -25 -114 -32 -62
-63 l32 -20 -79 0 c-66 0 -86 -4 -130 -27 -28 -16 -53 -31 -54 -36 -2 -4 -17
-14 -33 -22 -16 -9 -29 -22 -29 -31 0 -8 -8 -18 -17 -21 -10 -4 -29 -15 -42
-25 -13 -10 -36 -18 -51 -18 l-28 0 19 37 c10 21 19 43 19 50 0 19 31 32 96
40 l59 8 -70 5 -70 5 105 52 c112 56 90 65 -29 12 -35 -16 -65 -29 -66 -29 -1
0 -1 10 0 21 2 25 25 44 78 66 50 21 41 28 -12 9 -37 -12 -42 -12 -37 1 18 46
86 130 140 170 87 66 89 69 19 34 -34 -17 -78 -45 -98 -62 l-35 -31 30 66 c62
138 112 188 236 230 39 13 83 30 100 39 37 20 87 72 110 117 22 43 24 151 3
199 -14 33 -14 32 -15 -45 0 -147 -71 -233 -224 -274 -65 -17 -136 -58 -164
-94 -30 -39 -65 -111 -102 -205 -23 -61 -35 -78 -69 -99 -22 -14 -51 -35 -64
-46 -20 -17 -23 -18 -18 -4 3 9 11 44 17 78 18 99 48 187 76 220 23 26 26 38
22 79 -6 61 -38 128 -88 183 l-40 43 26 -58 c34 -77 36 -158 6 -248 -13 -36
-29 -95 -37 -130 l-13 -64 -1 136 c-1 200 -31 295 -151 489 -67 107 -71 147
-23 242 34 69 58 81 161 83 108 1 158 24 205 93 66 95 65 95 175 88 109 -8
150 -19 204 -53 21 -13 109 -60 195 -104 87 -45 186 -104 219 -130 34 -27 65
-49 69 -49 3 0 -40 52 -96 116 -92 104 -197 199 -208 189 -2 -2 15 -27 39 -55
23 -27 36 -50 29 -50 -8 0 -95 40 -194 90 -100 49 -195 93 -213 96 -44 9 -30
24 24 24 32 0 69 -12 137 -45 50 -25 83 -38 72 -29 -11 9 -54 33 -95 53 -71
34 -80 36 -162 33 -54 -1 -88 2 -88 8 0 5 8 11 18 11 45 4 -134 23 -218 23
-81 1 -102 -3 -145 -23 -27 -14 -54 -27 -60 -29 -5 -3 6 12 25 32 30 32 67 54
180 105 l25 11 -25 -6 c-91 -20 -147 -50 -212 -114 -46 -44 -68 -60 -68 -49 0
49 42 100 129 158 20 13 41 28 46 33 13 13 -64 -19 -93 -38 -43 -28 -34 -7 15
35 26 22 77 55 113 73 87 43 183 45 278 6 71 -29 66 -12 -6 23 -67 33 -214 33
-287 0 -27 -12 -58 -30 -68 -38 -26 -24 -30 -10 -6 20 11 15 16 27 10 27 -26
0 -80 -96 -122 -213 l-27 -79 -13 39 c-7 21 -13 61 -13 89 -1 44 5 60 38 108
46 67 134 136 214 167 45 18 77 22 157 23 87 0 120 -5 203 -30 9 -3 4 2 -13
12 -112 64 -297 56 -424 -19 -85 -50 -175 -139 -202 -199 -22 -50 -23 -63 -20
-230 l2 -178 -28 14 c-15 8 -49 22 -76 31 -48 17 -78 50 -122 135 -26 50 -25
151 3 213 19 43 19 46 3 37 -25 -13 -80 -100 -97 -153 -14 -40 -14 -38 -10 63
5 132 29 209 98 323 103 169 231 299 409 416 48 31 95 61 105 68 51 33 -73
-26 -156 -75 -152 -88 -251 -172 -315 -267 -25 -37 -27 -38 -21 -11 26 109 18
113 -29 14 -30 -63 -35 -68 -35 -41 0 31 42 167 66 215 20 40 17 45 -8 12 -30
-40 -88 -105 -88 -99 0 2 9 28 20 57 l20 53 -25 -30 -25 -30 0 35 c1 19 7 64
15 100 19 88 18 93 -11 35 l-24 -50 5 50 c15 143 27 413 22 511 l-5 112 34 33
c29 28 34 30 34 13 0 -16 3 -14 18 9 22 36 34 34 20 -4z m757 -19 c-3 -5 -20
-19 -37 -32 -31 -21 -31 -11 0 25 16 18 48 24 37 7z m154 -66 c-57 -59 -150
-125 -236 -168 -68 -34 -73 -33 -63 10 9 40 47 84 99 116 39 24 244 107 250
101 3 -2 -20 -28 -50 -59z m-265 34 c-10 -13 -26 -28 -34 -35 -10 -8 -11 -12
-3 -13 8 0 3 -20 -14 -56 -36 -78 -30 -143 20 -218 20 -31 37 -58 37 -60 0 -6
-85 21 -119 38 -40 21 -51 44 -51 104 0 85 23 132 120 250 6 6 23 12 37 12 26
0 26 0 7 -22z m771 -234 c-9 -31 -44 -112 -77 -180 -58 -118 -103 -180 -150
-205 -19 -10 -19 -8 4 22 30 40 98 162 98 175 0 5 -11 -4 -25 -19 -14 -15 -28
-27 -30 -27 -15 0 31 101 67 146 79 101 118 157 119 173 1 9 4 6 6 -7 2 -12
-3 -47 -12 -78z m-667 -153 c-19 -37 -35 -58 -41 -52 -10 10 3 39 41 89 36 48
37 34 0 -37z m-1948 -80 c65 -63 54 -78 -23 -30 -62 38 -167 119 -167 129 0 4
30 -5 68 -19 48 -19 83 -41 122 -80z m2338 57 c-34 -53 -225 -145 -249 -121
-15 15 18 36 122 76 53 21 105 44 115 52 26 20 29 18 12 -7z m-2403 -101 c33
-22 49 -36 35 -32 -36 11 -113 59 -118 74 -5 16 -6 16 83 -42z m2373 -1 c-26
-23 -105 -47 -151 -45 -16 0 127 56 173 67 3 1 -7 -9 -22 -22z m-2363 -84 c-5
-5 -83 36 -91 49 -4 7 16 -1 44 -17 28 -16 49 -30 47 -32z m2365 43 c0 -9 -82
-46 -93 -42 -7 2 8 13 33 25 47 21 60 25 60 17z m-12 -52 c-10 -2 -26 -2 -35
0 -10 3 -2 5 17 5 19 0 27 -2 18 -5z m-2762 -274 c55 -14 63 -26 27 -40 -26
-10 -27 -11 -10 -24 17 -12 17 -14 -5 -29 -30 -21 -51 -20 -74 5 -16 17 -16
22 -4 29 8 6 19 10 23 10 5 0 -2 17 -14 37 -20 32 -21 36 -5 30 10 -4 38 -12
62 -18z m3230 -129 c-29 -45 -43 -49 -77 -21 l-23 18 34 18 c38 20 83 34 89
29 2 -2 -8 -22 -23 -44z m-1719 -327 c-2 -16 -4 -3 -4 27 0 30 2 43 4 28 2
-16 2 -40 0 -55z m96 -198 c19 -53 60 -115 117 -174 35 -35 38 -42 18 -36 -50
15 -112 61 -132 99 -18 36 -36 156 -23 156 3 0 12 -20 20 -45z m-713 25 c12
-7 12 -12 3 -21 -10 -10 -18 -10 -38 -1 -14 6 -25 16 -25 22 0 13 40 13 60 0z
m-81 -37 c-1 -21 -3 -31 -6 -22 -2 10 -13 19 -24 22 -29 8 -24 37 6 37 22 0
25 -4 24 -37z m1361 23 c0 -8 -6 -16 -12 -19 -18 -6 -50 12 -43 24 10 15 55
11 55 -5z m78 -3 c2 -8 -6 -13 -22 -13 -26 0 -40 12 -29 24 11 11 46 2 51 -11z
m-711 -15 c-3 -8 -6 -5 -6 6 -1 11 2 17 5 13 3 -3 4 -12 1 -19z m-786 -95 c13
-16 12 -17 -3 -4 -10 7 -18 15 -18 17 0 8 8 3 21 -13z m1519 14 c0 -2 -12 -14
-27 -28 l-28 -24 24 28 c23 25 31 32 31 24z m-401 -273 c2 -59 31 -130 96
-229 74 -113 102 -180 111 -263 l6 -57 -20 32 c-12 17 -75 88 -142 157 -135
140 -166 192 -156 258 7 45 27 88 64 137 23 29 27 31 33 15 4 -11 8 -33 8 -50z
m-2012 -615 c-23 -22 -36 -38 -29 -34 7 4 44 4 82 0 l69 -7 -16 -24 -15 -24
56 0 c31 0 56 -4 56 -9 0 -5 -16 -21 -36 -36 -39 -30 -39 -47 0 -21 14 9 45
16 68 16 l43 -1 -40 -18 c-35 -16 -37 -20 -20 -26 59 -20 59 -20 -6 -50 -59
-27 -158 -110 -146 -122 3 -3 25 8 49 25 99 67 156 83 228 63 21 -6 17 -8 -24
-13 -26 -3 -55 -14 -65 -23 -15 -16 -15 -17 6 -6 30 15 42 13 19 -4 -23 -17
-21 -18 87 -34 42 -7 96 -18 120 -26 l42 -13 -38 -1 c-46 -1 -175 -43 -234
-76 -44 -24 -53 -20 -53 26 0 19 -3 18 -37 -7 -64 -47 -113 -97 -140 -141 -14
-24 -29 -43 -34 -43 -5 0 -9 44 -9 98 0 88 14 169 46 257 11 30 -63 -42 -87
-85 l-19 -35 6 40 c3 22 19 78 35 125 15 46 26 86 25 88 -2 2 -17 -13 -33 -33
-66 -87 -65 -86 -58 -35 8 58 29 131 57 198 20 48 24 52 54 52 l33 0 -42 -41z
m-120 -26 c-14 -43 -20 -86 -21 -163 -1 -95 -3 -107 -24 -130 -13 -14 -37 -47
-53 -75 l-29 -50 0 91 c0 94 24 213 56 276 12 26 81 108 90 108 1 0 -8 -26
-19 -57z m3407 -139 c8 -3 33 -29 55 -58 40 -51 41 -55 40 -127 0 -83 -13
-162 -22 -139 -3 8 -10 37 -17 64 -19 83 -60 155 -118 206 l-54 48 28 5 c48 7
72 7 88 1z m-892 -143 c-13 -28 -34 -51 -66 -71 -49 -31 -55 -27 -31 19 12 25
105 104 113 97 1 -2 -6 -22 -16 -45z m-603 -35 c22 -14 10 -34 -24 -40 -19 -4
-121 -4 -225 0 -146 5 -190 10 -190 20 0 7 8 17 17 23 19 10 404 8 422 -3z
m-869 -70 c0 -16 -31 17 -46 48 l-15 31 30 -35 c17 -19 31 -39 31 -44z m1434
12 c-12 -40 -20 -50 -53 -64 -28 -12 -31 -11 -31 6 0 17 65 79 83 80 5 0 5
-10 1 -22z m-1555 -4 c22 -8 41 -24 44 -35 6 -21 3 -22 -41 -13 -18 4 -34 15
-41 30 -18 40 -18 41 38 18z m121 -80 c0 -2 -9 0 -20 6 -11 6 -20 13 -20 16 0
2 9 0 20 -6 11 -6 20 -13 20 -16z m389 -21 c9 -7 32 -13 51 -13 28 0 32 -3 18
-11 -10 -5 -29 -7 -43 -3 -26 6 -65 48 -65 68 0 6 6 2 12 -9 6 -11 19 -25 27
-32z m1011 7 c-18 -34 -70 -53 -70 -26 0 10 52 41 78 45 1 1 -2 -8 -8 -19z
m-819 -17 c23 -62 -46 -105 -115 -69 l-31 16 37 -6 c67 -11 111 23 88 66 -8
14 -8 20 0 20 6 0 15 -12 21 -27z m202 -12 c-5 -37 -3 -41 21 -47 15 -3 46 -4
69 0 40 6 41 5 17 -9 -30 -17 -102 -19 -118 -3 -15 15 -16 53 -2 79 16 28 19
23 13 -20z m1258 2 c37 -17 85 -48 108 -68 l41 -37 -22 -32 c-12 -17 -72 -83
-133 -146 -61 -63 -124 -132 -139 -153 l-29 -38 -22 73 c-21 71 -60 158 -71
158 -14 0 -105 -68 -155 -117 l-56 -54 -11 55 c-14 69 -52 145 -100 198 l-37
41 65 -6 65 -6 -65 24 c-60 22 -62 23 -30 24 89 2 240 -58 343 -135 89 -68 98
-72 44 -21 -63 60 -174 134 -232 154 -25 8 -45 16 -43 18 8 7 132 -17 158 -30
17 -9 30 -12 30 -7 0 12 -50 56 -87 78 -107 60 75 36 219 -30 42 -19 104 -53
138 -76 34 -23 64 -40 67 -37 11 12 -111 94 -214 144 -62 30 -113 57 -113 60
0 3 48 3 108 1 95 -3 115 -7 173 -35z m-1081 22 c0 -13 -51 -36 -70 -30 -32
10 -23 21 14 17 18 -2 37 1 40 7 7 11 16 15 16 6z m400 -60 c-15 -18 -13 -20
20 -35 l25 -11 -25 6 c-14 2 -35 5 -47 5 -31 0 -29 16 5 34 35 19 37 19 22 1z
m-1340 -5 c11 -7 5 -8 -20 -4 -43 8 -51 14 -19 14 13 0 31 -5 39 -10z m1333
-107 c-13 -2 -33 -2 -45 0 -13 2 -3 4 22 4 25 0 35 -2 23 -4z m-1300 -10 c-7
-2 -19 -2 -25 0 -7 3 -2 5 12 5 14 0 19 -2 13 -5z m-63 -13 c-34 -11 -60 -11
-35 0 11 5 29 8 40 8 16 0 15 -2 -5 -8z m1462 -12 c9 -7 24 -26 34 -43 18 -30
18 -30 -1 -14 -11 9 -40 28 -65 42 -45 27 -45 27 -14 27 16 0 37 -6 46 -12z
m-52 -43 c59 -12 109 -43 117 -73 12 -42 6 -152 -12 -201 -8 -24 -13 -46 -11
-48 2 -2 42 43 89 99 93 112 184 196 196 182 17 -19 42 -112 48 -174 5 -64
-13 -140 -34 -140 -5 0 -17 29 -28 64 l-21 65 -64 -59 c-45 -40 -69 -55 -77
-48 -14 11 -117 -38 -190 -93 -28 -21 -103 -103 -166 -181 -63 -79 -125 -152
-137 -163 -21 -19 -21 -17 5 35 16 30 37 78 47 105 l19 50 -5 -40 c-4 -40 -4
-40 24 20 30 63 60 187 60 252 l1 38 14 -27 c18 -32 22 -79 11 -133 -4 -22 -5
-37 -2 -34 17 16 48 130 55 198 7 74 8 75 21 46 8 -16 14 -58 14 -93 1 -53 3
-60 14 -45 7 9 11 22 9 28 -2 5 2 15 9 22 7 7 16 37 19 67 10 79 -14 143 -83
219 -21 21 -22 27 -9 27 26 0 69 -21 117 -59 l45 -34 -50 52 c-27 29 -66 61
-85 72 -19 11 -26 18 -15 15 11 -2 36 -8 55 -11z m-1402 -35 c-31 -17 -75 -47
-97 -68 -46 -44 -57 -39 -12 5 28 28 137 93 156 92 6 0 -16 -13 -47 -29z m102
7 c0 -2 -25 -25 -56 -52 -31 -27 -55 -43 -53 -36 5 14 109 98 109 88z m1307
-215 c3 -28 2 -59 -2 -69 -7 -18 -25 43 -40 142 l-7 40 22 -32 c11 -17 23 -54
27 -81z m-779 73 c7 -7 -27 -6 -55 1 -13 4 -21 10 -18 14 5 8 62 -4 73 -15z
m177 5 c-8 -13 -35 -13 -55 0 -11 7 -5 10 23 10 23 0 36 -4 32 -10z m-310 -51
c-4 -5 1 -6 9 -3 11 4 16 0 16 -12 0 -15 2 -16 9 -5 8 12 12 12 25 2 12 -10
19 -11 29 -2 8 6 17 8 20 4 10 -10 148 -10 154 -1 2 5 11 4 18 -2 10 -8 15 -8
20 0 5 8 10 8 20 0 10 -8 16 -7 23 6 6 10 16 15 26 11 12 -5 16 -1 16 15 0 17
3 19 12 10 9 -9 14 -7 24 6 8 9 14 12 14 5 0 -21 -51 -72 -96 -94 -24 -13 -44
-26 -44 -31 0 -5 -7 -8 -15 -6 -8 2 -26 -10 -40 -27 -23 -28 -24 -29 -25 -8 0
32 -18 38 -26 8 -6 -26 -7 -26 -21 -5 -8 11 -18 18 -23 15 -5 -3 -15 4 -23 15
-7 11 -16 17 -19 14 -15 -14 -158 94 -158 119 0 5 6 4 14 -2 11 -9 15 -8 21 6
6 16 8 15 16 -5 5 -13 7 -28 4 -33z m-105 -37 c16 -28 29 -41 39 -37 10 3 22
-6 33 -26 10 -17 22 -28 27 -24 6 3 29 -26 52 -65 41 -70 62 -95 36 -42 -8 15
-18 38 -22 52 -15 48 22 3 46 -58 l24 -57 5 35 6 35 19 -35 19 -35 10 28 c11
31 26 36 26 8 0 -34 16 -32 33 4 9 19 23 35 32 35 8 0 15 6 15 13 0 6 9 23 20
37 16 20 20 22 20 8 0 -10 5 -18 10 -18 6 0 10 6 10 14 0 8 15 31 34 52 30 33
36 36 50 25 20 -16 17 -19 49 44 45 86 49 87 44 15 -3 -36 -13 -82 -23 -102
-17 -36 -19 -37 -36 -21 -14 13 -18 13 -18 2 -1 -8 -7 -27 -16 -44 -12 -25
-13 -26 -10 -6 6 28 3 25 -54 -53 -35 -48 -45 -56 -50 -42 -5 15 -11 10 -34
-25 -16 -24 -47 -66 -70 -93 l-40 -49 -19 44 c-18 44 -18 44 -31 20 -13 -24
-14 -23 -80 60 -37 46 -81 109 -99 140 -30 55 -32 56 -47 36 -16 -19 -17 -19
-35 24 -10 24 -19 75 -21 113 -3 75 -1 75 46 -12z m-680 -51 c0 -6 5 -11 10
-11 6 0 5 -8 -2 -19 -7 -11 -15 -18 -19 -15 -10 6 -45 84 -53 119 -7 28 -5 26
28 -17 20 -26 36 -52 36 -57z m1298 -273 c-3 -70 -9 -93 -37 -145 -18 -34 -42
-70 -53 -80 -20 -18 -20 -18 -5 20 9 21 21 66 27 100 13 74 51 187 64 187 5 0
7 -37 4 -82z m42 5 c0 -10 -5 -25 -10 -33 -7 -11 -10 -7 -10 18 0 17 5 32 10
32 6 0 10 -8 10 -17z m-156 -441 c-4 -15 -11 -31 -17 -37 -7 -7 -8 -4 -3 8 3
10 6 30 6 43 0 14 4 22 10 19 6 -3 7 -18 4 -33z"/>
<path d="M4236 4780 c34 -115 42 -272 20 -358 -19 -75 -55 -154 -100 -220 -19
-26 -48 -75 -66 -107 l-32 -60 46 49 c54 57 103 141 142 246 26 70 28 85 28
230 1 159 -12 237 -48 285 -10 13 -6 -8 10 -65z"/>
<path d="M3615 4430 c-16 -11 -25 -20 -20 -20 10 0 64 39 55 40 -3 0 -18 -9
-35 -20z"/>
<path d="M3080 4534 c-16 -26 -36 -68 -44 -93 -17 -54 -31 -118 -23 -111 4 5
77 173 97 226 15 37 2 29 -30 -22z"/>
<path d="M2908 4448 c-123 -145 -178 -250 -187 -360 -4 -43 -3 -74 1 -70 4 4
27 62 51 127 52 142 86 212 136 280 68 92 68 104 -1 23z"/>
<path d="M2800 4402 c-71 -75 -107 -143 -125 -234 -7 -40 -12 -74 -10 -76 8
-8 44 60 60 113 22 77 48 127 102 198 24 31 41 57 36 57 -4 0 -32 -26 -63 -58z"/>
<path d="M2933 4308 c-18 -39 -31 -74 -28 -76 7 -7 68 125 63 138 -1 5 -18
-23 -35 -62z"/>
<path d="M2912 4074 c-67 -72 -137 -183 -130 -205 2 -5 30 31 62 81 32 50 79
116 103 146 24 30 42 54 39 54 -2 0 -36 -34 -74 -76z"/>
<path d="M3024 4078 c-71 -75 -109 -127 -99 -136 4 -4 23 12 43 34 38 43 126
164 119 164 -2 0 -31 -28 -63 -62z"/>
<path d="M3356 4020 c-27 -11 -54 -24 -60 -30 -11 -11 92 22 121 39 31 18 -7
12 -61 -9z"/>
<path d="M3386 3981 c-4 -5 8 -13 26 -16 39 -9 144 -60 153 -75 3 -5 12 -10
18 -10 25 1 -77 80 -117 91 -22 5 -48 12 -58 15 -9 3 -19 0 -22 -5z"/>
<path d="M3003 3854 l-58 -56 51 41 c51 41 81 71 71 71 -3 0 -32 -25 -64 -56z"/>
<path d="M3305 3844 c-22 -7 -29 -12 -15 -9 14 3 48 5 75 6 37 0 45 3 30 9
-27 12 -43 11 -90 -6z"/>
<path d="M3041 3800 c-98 -54 -207 -152 -257 -231 -41 -65 -21 -55 39 19 64
79 134 142 226 201 75 48 70 54 -8 11z"/>
<path d="M3395 3780 c-4 -6 18 -10 58 -10 36 0 80 -2 98 -5 33 -4 33 -4 -6 9
-47 17 -141 20 -150 6z"/>
<path d="M3080 3702 c-30 -15 -86 -58 -125 -95 l-70 -69 75 62 c41 34 99 75
128 91 28 17 52 32 52 35 0 6 -1 6 -60 -24z"/>
<path d="M3696 3691 c10 -11 72 -27 63 -17 -4 4 -21 11 -39 16 -20 6 -30 6
-24 1z"/>
<path d="M3711 3631 c79 -35 134 -68 214 -130 82 -64 90 -68 76 -43 -32 60
-226 179 -321 196 -26 5 -18 -1 31 -23z"/>
<path d="M3680 3590 c34 -11 60 -11 35 0 -11 5 -29 8 -40 8 -16 0 -15 -2 5 -8z"/>
<path d="M3702 3535 c3 -3 35 -12 70 -20 34 -7 72 -16 83 -19 11 -4 2 2 -20
13 -39 18 -147 40 -133 26z"/>
<path d="M2636 3450 c-9 -22 -16 -50 -15 -63 0 -12 9 4 20 37 23 67 19 87 -5
26z"/>
<path d="M2921 3423 c-33 -40 -75 -122 -67 -130 2 -3 12 10 21 29 10 18 35 57
56 86 45 59 36 71 -10 15z"/>
<path d="M2717 3415 c-24 -50 -20 -58 4 -12 11 22 19 41 17 43 -3 2 -12 -12
-21 -31z"/>
<path d="M3710 3370 c-20 -6 -15 -8 25 -9 69 -2 164 -26 247 -62 38 -17 72
-28 75 -25 9 9 -136 72 -192 84 -78 17 -128 20 -155 12z"/>
<path d="M3903 3263 c9 -2 15 -8 13 -12 -4 -7 204 -134 210 -128 4 4 -86 63
-151 99 -48 27 -49 28 -15 22 19 -4 44 -11 55 -17 17 -9 18 -8 7 5 -13 16 -87
39 -119 37 -17 -1 -17 -2 0 -6z"/>
<path d="M3578 3230 c40 -11 77 -22 82 -25 6 -4 10 -3 10 0 0 13 -88 45 -125
44 -36 0 -32 -2 33 -19z"/>
<path d="M2821 3221 c-2 -22 -63 -111 -73 -105 -6 4 -8 15 -5 25 3 11 1 17 -4
13 -5 -3 -9 -24 -9 -48 0 -47 40 -115 81 -136 19 -11 19 -9 -5 26 -33 48 -33
79 0 155 14 34 23 66 20 72 -3 8 -5 7 -5 -2z"/>
<path d="M3882 3120 c54 -50 125 -115 159 -143 34 -29 88 -87 120 -130 33 -43
59 -74 59 -69 0 10 -82 130 -136 200 -20 26 -25 34 -10 19 14 -15 26 -24 26
-19 0 14 -141 146 -185 174 -22 13 -60 32 -85 42 -44 17 -43 16 52 -74z"/>
<path d="M3474 2966 c-20 -24 -35 -46 -33 -49 8 -10 -34 -45 -86 -72 -50 -25
-63 -27 -133 -23 -56 4 -70 3 -52 -4 14 -6 49 -10 77 -10 65 -1 156 41 223
102 41 38 39 47 -2 12 -30 -25 -20 -2 18 44 19 24 33 44 30 44 -3 0 -22 -20
-42 -44z"/>
<path d="M3592 2973 c-10 -10 -45 -53 -76 -95 -100 -135 -152 -165 -256 -149
-30 5 -56 8 -58 6 -2 -2 22 -12 53 -24 143 -53 220 -9 312 177 27 56 49 102
47 102 -1 0 -11 -8 -22 -17z"/>
<path d="M3785 2880 c19 -47 39 -109 45 -137 14 -66 25 -69 16 -5 -9 69 -43
163 -70 197 -23 28 -22 23 9 -55z"/>
<path d="M3909 2860 c65 -54 85 -78 57 -67 -65 25 -69 20 -21 -24 27 -24 85
-100 130 -169 72 -110 135 -187 135 -166 0 11 -142 279 -157 297 -8 9 23 -3
69 -27 85 -45 104 -51 93 -34 -7 11 -351 240 -361 240 -3 0 22 -22 55 -50z"/>
<path d="M3627 2815 c-22 -117 -101 -203 -193 -211 -42 -4 -46 -3 -30 8 36 24
87 71 96 87 7 13 -4 11 -47 -11 -68 -34 -122 -36 -233 -7 -44 11 -87 19 -94
17 -21 -5 169 -110 220 -121 31 -7 59 -7 100 2 80 18 155 91 179 173 9 32 15
68 13 80 -3 17 -6 12 -11 -17z"/>
<path d="M3373 2779 c-5 -5 -32 -14 -59 -18 l-49 -9 47 -1 c41 -1 78 16 78 35
0 7 -5 5 -17 -7z"/>
<path d="M4330 2620 c49 -42 107 -80 96 -62 -9 16 -123 102 -133 102 -4 0 12
-18 37 -40z"/>
<path d="M3110 2647 c3 -2 37 -30 75 -62 83 -67 134 -95 172 -94 l28 1 -30 7
c-43 11 -82 33 -150 86 -51 40 -111 79 -95 62z"/>
<path d="M3439 2471 c13 -12 34 -24 46 -27 27 -7 93 10 120 31 18 14 17 14
-13 4 -31 -11 -71 -9 -147 6 l-30 6 24 -20z"/>
<path d="M3788 2037 c30 -32 28 -37 -15 -30 -35 4 -32 2 27 -27 l65 -33 -109
-28 c-135 -34 -200 -59 -189 -70 5 -5 60 3 128 18 112 25 123 26 189 13 108
-20 180 -25 171 -10 -4 7 -51 41 -104 75 -53 35 -111 75 -130 89 -43 32 -62
34 -33 3z"/>
<path d="M3910 2051 c-76 -14 0 -18 115 -6 l120 13 -100 -1 c-55 0 -116 -2
-135 -6z"/>
<path d="M848 2019 l-33 -31 33 19 c38 21 61 43 43 43 -6 0 -25 -14 -43 -31z"/>
<path d="M947 1663 c-3 -10 -8 -31 -11 -48 -6 -28 -5 -29 9 -11 8 11 15 32 15
48 0 32 -6 37 -13 11z"/>
<path d="M3772 1390 c0 -30 3 -64 8 -75 11 -26 11 70 0 105 -6 19 -8 12 -8
-30z"/>
<path d="M1930 4636 c0 -4 22 -34 48 -69 67 -86 108 -147 138 -207 14 -29 28
-50 30 -47 8 7 -45 197 -60 219 -9 12 -16 17 -16 10 0 -22 -16 -13 -78 44 -34
31 -62 53 -62 50z"/>
<path d="M2184 4498 c9 -13 25 -67 36 -119 26 -120 31 -130 26 -47 -3 36 -12
84 -20 105 l-16 38 45 -50 c59 -65 94 -139 112 -239 9 -45 19 -90 24 -101 7
-19 8 -19 8 3 1 18 5 22 20 17 18 -5 19 -2 14 52 -9 86 -37 152 -92 213 -58
66 -183 167 -157 128z"/>
<path d="M2152 4460 c0 -14 2 -19 5 -12 2 6 2 18 0 25 -3 6 -5 1 -5 -13z"/>
<path d="M2427 4430 c11 -62 24 -90 18 -41 -3 24 -10 51 -15 60 -7 11 -8 5 -3
-19z"/>
<path d="M2161 4414 c0 -11 3 -14 6 -6 3 7 2 16 -1 19 -3 4 -6 -2 -5 -13z"/>
<path d="M2071 4130 c14 -19 63 -86 109 -149 78 -105 113 -135 75 -62 -17 35
-150 195 -186 226 -23 19 -22 19 2 -15z"/>
<path d="M1860 4049 c19 -12 50 -30 69 -42 19 -11 31 -16 28 -10 -8 12 -112
73 -124 73 -5 0 8 -10 27 -21z"/>
<path d="M1669 4000 c55 -25 64 -25 26 0 -16 11 -39 20 -50 20 -12 0 -3 -8 24
-20z"/>
<path d="M1616 3855 c-57 -20 -66 -36 -11 -19 76 22 198 18 278 -10 92 -33
194 -95 267 -162 33 -31 60 -52 60 -47 0 27 -148 142 -247 192 -118 59 -259
78 -347 46z"/>
<path d="M2060 3796 c0 -2 19 -16 43 -29 67 -40 145 -114 209 -200 66 -90 78
-89 18 1 -43 64 -139 159 -199 196 -37 23 -71 38 -71 32z"/>
<path d="M1465 3751 c-14 -5 12 -10 80 -13 60 -3 116 -12 139 -22 54 -23 57
-12 5 15 -47 23 -186 36 -224 20z"/>
<path d="M1291 3620 c-88 -42 -153 -92 -197 -151 -20 -28 -78 -83 -128 -123
-50 -40 -100 -83 -110 -95 -20 -22 -20 -22 0 -14 39 16 110 57 164 93 30 20
75 47 100 60 l45 22 -70 -73 c-38 -40 -63 -68 -55 -62 8 6 51 37 95 69 94 70
174 107 270 127 l70 15 -65 1 c-63 1 -204 -30 -287 -64 -37 -14 -36 -13 27 46
70 66 127 108 205 151 41 23 46 28 25 28 -14 0 -54 -14 -89 -30z"/>
<path d="M1650 3601 c-11 -8 1 -11 46 -11 34 0 77 -2 95 -5 31 -5 32 -5 10 5
-36 16 -134 23 -151 11z"/>
<path d="M2015 3542 c93 -55 173 -155 205 -257 18 -57 33 -69 25 -20 -20 122
-147 270 -255 300 -14 3 -2 -7 25 -23z"/>
<path d="M1620 3543 c-41 -7 -102 -24 -99 -27 2 -2 51 5 109 14 69 12 89 18
60 18 -25 -1 -56 -3 -70 -5z"/>
<path d="M1285 3519 c-22 -5 -44 -14 -49 -19 -5 -5 8 -5 30 0 22 5 62 13 89
18 50 10 50 10 10 10 -22 0 -58 -4 -80 -9z"/>
<path d="M2297 3443 c28 -75 49 -107 37 -58 -7 31 -51 125 -58 125 -3 0 7 -30
21 -67z"/>
<path d="M1522 3450 c-40 -9 -76 -21 -80 -25 -4 -4 2 -5 13 -2 11 3 34 9 50
13 l30 7 -28 -22 c-27 -22 -87 -103 -87 -117 0 -4 26 18 58 48 31 30 76 67
100 83 63 42 59 43 -56 15z"/>
<path d="M1675 3416 c-49 -17 -43 -19 23 -6 63 12 140 0 224 -35 91 -38 95
-39 70 -16 -61 54 -235 85 -317 57z"/>
<path d="M1224 3336 c-78 -29 -141 -66 -179 -105 -25 -27 -14 -23 85 32 63 35
129 71 145 80 42 23 21 20 -51 -7z"/>
<path d="M2381 3192 c-1 -76 -18 -120 -77 -194 -52 -66 -55 -77 -14 -47 70 52
113 161 100 254 l-7 50 -2 -63z"/>
<path d="M1203 3218 c-85 -46 -169 -116 -295 -247 -140 -146 -189 -211 -90
-119 107 98 264 224 350 278 81 51 115 82 46 41 -52 -31 -53 -26 -4 24 24 25
42 45 39 45 -2 0 -23 -10 -46 -22z"/>
<path d="M1090 3213 c-28 -10 -110 -65 -110 -74 0 -7 120 60 139 77 6 5 -11 4
-29 -3z"/>
<path d="M1518 3193 c7 -3 16 -2 19 1 4 3 -2 6 -13 5 -11 0 -14 -3 -6 -6z"/>
<path d="M1329 3167 c-47 -23 -133 -86 -126 -94 4 -4 162 90 182 108 15 15 -6
9 -56 -14z"/>
<path d="M2317 3153 c-4 -24 -10 -43 -13 -43 -3 0 -16 12 -30 28 -21 21 -24
23 -19 7 18 -55 17 -84 -5 -121 l-23 -37 27 18 c43 29 78 96 74 147 l-3 43 -8
-42z"/>
<path d="M1516 3080 c28 -4 60 -13 72 -19 12 -6 22 -9 22 -7 0 14 -64 36 -102
35 l-43 -1 51 -8z"/>
<path d="M1214 3042 c-42 -31 -83 -74 -54 -57 8 4 33 22 55 39 22 16 42 31 44
33 2 2 2 5 -1 8 -3 3 -22 -8 -44 -23z"/>
<path d="M1075 3016 c-28 -18 -61 -46 -75 -62 -17 -18 3 -8 60 31 47 32 87 60
89 62 2 2 -2 3 -10 3 -8 0 -37 -15 -64 -34z"/>
<path d="M1560 3023 c0 -37 21 -150 37 -197 20 -61 75 -123 132 -149 l45 -20
-30 -12 c-29 -13 -29 -13 11 -8 68 10 138 57 187 127 l23 31 -30 -19 c-121
-79 -123 -80 -165 -67 -60 18 -102 76 -156 212 -25 66 -48 119 -50 119 -2 0
-4 -8 -4 -17z"/>
<path d="M1474 2995 c3 -11 12 -51 21 -89 8 -38 24 -88 34 -111 21 -47 74
-111 105 -126 13 -6 11 -2 -7 11 -51 40 -87 106 -112 204 -12 52 -28 102 -34
112 -11 18 -12 18 -7 -1z"/>
<path d="M1654 2953 c45 -89 133 -134 223 -115 l48 10 -63 1 c-81 1 -120 20
-179 85 -38 42 -43 46 -29 19z"/>
<path d="M2700 2842 c18 -29 35 -50 37 -48 7 7 -24 60 -47 81 -17 15 -15 8 10
-33z"/>
<path d="M1341 2847 c-22 -36 -43 -87 -36 -87 3 0 18 27 35 60 33 65 34 79 1
27z"/>
<path d="M1184 2841 c-21 -16 -75 -66 -119 -111 l-80 -83 80 43 c115 62 174
104 153 108 -24 5 -23 11 9 44 36 38 9 38 -43 -1z"/>
<path d="M1331 2733 c-15 -51 -13 -130 3 -176 41 -114 183 -201 289 -177 34 7
37 6 37 -14 0 -18 54 -146 62 -146 2 0 2 34 0 75 -5 95 2 134 33 180 28 40 31
38 -36 19 -36 -10 -13 13 64 65 40 27 83 61 97 76 22 24 18 23 -26 -9 -90 -63
-160 -89 -233 -84 l-64 4 37 -32 c20 -17 51 -35 69 -38 l32 -7 -25 -20 c-29
-24 -70 -20 -142 15 -51 25 -58 23 -31 -6 26 -29 8 -32 -37 -7 -22 13 -54 42
-69 66 -34 51 -56 154 -46 212 9 51 -1 53 -14 4z"/>
<path d="M1114 2671 c-43 -21 -93 -52 -110 -67 -28 -26 -103 -144 -91 -144 3
0 29 30 59 68 30 37 74 78 98 91 25 14 40 18 35 10 -13 -21 -93 -137 -133
-193 -50 -69 -14 -46 75 47 65 68 162 211 151 222 -2 3 -40 -13 -84 -34z"/>
<path d="M2690 2687 c0 -5 16 -43 36 -85 57 -124 94 -219 129 -342 24 -82 34
-105 34 -80 1 50 -19 116 -79 265 -46 116 -119 263 -120 242z"/>
<path d="M807 2648 c-34 -46 -60 -88 -55 -88 3 0 24 27 47 60 44 62 50 84 8
28z"/>
<path d="M2359 2515 c-5 -94 -16 -178 -43 -303 -20 -95 -36 -181 -36 -190 1
-34 111 366 121 441 12 84 6 117 -7 45 -8 -41 -8 -40 -19 47 l-11 90 -5 -130z"/>
<path d="M2635 2596 c-10 -47 -1 -203 15 -271 23 -96 82 -310 88 -315 6 -6 0
27 -43 260 -20 102 -39 226 -43 275 -8 82 -9 86 -17 51z"/>
<path d="M2250 2414 c-22 -79 -33 -146 -36 -203 -1 -47 -1 -75 2 -61 3 14 21
103 40 199 19 95 33 175 31 178 -3 2 -19 -49 -37 -113z"/>
<path d="M1358 2243 c7 -3 16 -2 19 1 4 3 -2 6 -13 5 -11 0 -14 -3 -6 -6z"/>
<path d="M2106 2192 c-28 -101 -15 -201 35 -262 17 -20 20 -21 14 -5 -28 84
-37 147 -33 232 2 51 3 93 2 93 -1 0 -9 -26 -18 -58z"/>
<path d="M2878 2091 c-4 -25 -20 -71 -37 -104 -17 -32 -25 -57 -18 -54 7 2 25
28 40 58 21 42 28 66 25 100 l-3 44 -7 -44z"/>
<path d="M2355 1969 c-22 -5 -43 -13 -47 -17 -4 -4 85 -7 197 -7 157 0 199 3
182 11 -30 15 -282 25 -332 13z"/>
<path d="M1880 1711 c0 -14 113 -110 123 -104 4 3 -18 29 -50 58 -58 54 -73
63 -73 46z"/>
<path d="M1983 1693 c9 -9 19 -14 23 -11 10 10 -6 28 -24 28 -15 0 -15 -1 1
-17z"/>
<path d="M1031 1576 l-24 -31 28 27 c16 15 27 29 24 31 -2 3 -15 -10 -28 -27z"/>
<path d="M2958 1602 c-18 -3 -26 -32 -9 -32 10 0 36 29 30 33 -2 2 -12 2 -21
-1z"/>
<path d="M2040 1590 c0 -8 51 -40 65 -40 16 0 1 22 -25 35 -34 18 -40 18 -40
5z"/>
<path d="M2893 1569 c-28 -10 -30 -29 -3 -22 20 5 36 21 29 27 -2 2 -14 0 -26
-5z"/>
<path d="M2897 1486 c-21 -6 -41 -17 -45 -23 -4 -6 -23 -16 -42 -21 -19 -6
-26 -10 -15 -10 32 -1 148 42 153 56 4 14 0 14 -51 -2z"/>
<path d="M2126 1451 c5 -5 25 -12 44 -15 l35 -6 -30 15 c-34 16 -64 20 -49 6z"/>
<path d="M2050 1411 c0 -10 30 -24 37 -17 3 2 -5 9 -16 16 -12 6 -21 7 -21 1z"/>
<path d="M2302 1359 c-41 -22 -72 -43 -69 -45 5 -5 176 52 185 61 3 3 -4 5
-15 5 -12 0 -23 4 -25 10 -1 5 -36 -9 -76 -31z"/>
<path d="M2550 1372 c0 -6 21 -18 48 -27 26 -9 58 -21 71 -26 49 -20 32 2 -20
25 -74 32 -99 39 -99 28z"/>
<path d="M1147 1340 c-4 -14 -6 -50 -6 -80 l2 -55 8 69 c10 73 7 108 -4 66z"/>
<path d="M1302 1263 c3 -42 13 -85 27 -110 24 -47 34 -55 27 -20 -3 12 -8 40
-11 62 l-6 40 33 -52 34 -53 17 84 c27 134 22 149 -18 51 l-23 -57 -33 61
c-19 33 -38 61 -43 61 -5 0 -7 -30 -4 -67z"/>
<path d="M4126 1099 c-21 -55 -36 -102 -34 -105 8 -7 66 128 73 169 4 21 6 37
3 37 -2 0 -21 -45 -42 -101z"/>
<path d="M3991 1134 c-25 -31 -27 -86 -6 -104 13 -11 21 -10 43 7 39 29 57 69
43 99 -15 33 -54 32 -80 -2z"/>
<path d="M4235 1091 c-35 -15 -53 -44 -86 -136 -34 -98 -86 -207 -150 -313
l-40 -67 41 45 c124 137 251 349 267 443 6 38 2 41 -32 28z"/>
<path d="M3843 955 c-31 -13 -63 -59 -63 -89 0 -8 9 -17 20 -21 56 -18 158 98
104 119 -21 8 -24 8 -61 -9z"/>
<path d="M3925 864 c-101 -67 -111 -79 -159 -179 -76 -160 -152 -272 -295
-435 l-66 -74 80 64 c220 179 384 375 492 590 50 98 47 100 -52 34z"/>
<path d="M3420 827 c-14 -29 -7 -48 11 -30 6 6 9 21 7 34 l-4 24 -14 -28z"/>
<path d="M3488 750 c-50 -27 -80 -71 -76 -112 7 -72 104 -35 152 57 34 63 -6
92 -76 55z"/>
<path d="M3652 758 c-14 -14 -16 -48 -2 -48 5 0 14 9 21 21 13 25 -1 45 -19
27z"/>
<path d="M3232 710 c-33 -50 -52 -92 -52 -113 0 -7 21 25 46 71 52 94 55 117
6 42z"/>
<path d="M2626 587 l-58 -112 37 35 c43 41 80 102 90 147 13 64 -12 38 -69
-70z"/>
<path d="M3623 648 c-6 -7 -20 -42 -31 -78 -16 -49 -18 -60 -6 -45 19 25 49
82 58 113 8 24 -5 30 -21 10z"/>
<path d="M2549 564 c-26 -49 -49 -102 -53 -119 l-6 -30 30 35 c45 53 82 133
78 171 -3 30 -6 27 -49 -57z"/>
<path d="M2336 612 c-14 -23 -9 -156 9 -222 29 -110 37 -105 31 20 -6 120 -26
224 -40 202z"/>
<path d="M2402 400 c-2 -94 4 -92 39 7 25 73 24 88 -4 38 l-22 -40 -6 40 c-4
29 -6 17 -7 -45z"/>
</g>
</svg>